<svg width="21" height="21" viewBox="0 0 21 21" fill="none" xmlns="http://www.w3.org/2000/svg">
<path fill-rule="evenodd" clip-rule="evenodd" d="M1.52443 8.42884C1.52443 4.62122 4.6255 1.52287 8.43703 1.52287C12.2486 1.52287 15.3501 4.62122 15.3501 8.42884C15.3501 12.2365 12.2486 15.3344 8.43703 15.3344C4.6255 15.3344 1.52443 12.2365 1.52443 8.42884ZM20.3969 19.7003L14.7227 14.0319C16.056 12.5408 16.8745 10.5807 16.8745 8.42884C16.8745 3.78132 13.0893 0 8.43703 0C3.78474 0 0 3.78132 0 8.42884C0 13.0764 3.78474 16.8572 8.43703 16.8572C10.3864 16.8572 12.1791 16.187 13.6096 15.0736L19.3187 20.7773C19.4676 20.9256 19.6628 21 19.858 21C20.0527 21 20.248 20.9256 20.3969 20.7773C20.6947 20.4794 20.6947 19.9978 20.3969 19.7003Z" fill="#A4A4A4"/>
</svg>
